# Blender v2.80 (sub 35) OBJ File: 'road.blend'
# www.blender.org
mtllib banner.mtl
o Cube_Cube.001
v -0.409019 0.000000 -0.640876
v -0.409019 0.147450 -0.640876
v -0.407653 0.000000 -0.645698
v -0.407653 0.147450 -0.645698
v -0.404198 0.000000 -0.639510
v -0.404198 0.147450 -0.639510
v -0.402831 0.000000 -0.644331
v -0.402831 0.147450 -0.644331
v -0.345183 0.000000 -0.860758
v -0.345183 0.147450 -0.860758
v -0.343816 0.000000 -0.865580
v -0.343816 0.147450 -0.865580
v -0.340361 0.000000 -0.859392
v -0.340361 0.147450 -0.859392
v -0.338995 0.000000 -0.864213
v -0.338995 0.147450 -0.864213
v -0.405284 0.142973 -0.644916
v -0.405284 0.113558 -0.644916
v -0.342878 0.142973 -0.860149
v -0.342878 0.113558 -0.860149
vt 0.946150 0.904624
vt 0.058807 0.904626
vt 0.058807 0.874467
vt 0.946149 0.874463
vt 0.058806 0.844308
vt 0.946149 0.844303
vt 0.946150 0.964945
vt 0.058807 0.964944
vt 0.058807 0.934784
vt 0.946150 0.934784
vt 0.138134 0.596542
vt 0.138134 0.633650
vt 0.101025 0.633649
vt 0.101025 0.596541
vt 0.946826 0.744657
vt 0.050094 0.744659
vt 0.050094 0.714181
vt 0.946826 0.714178
vt 0.050093 0.683703
vt 0.946826 0.683698
vt 0.946826 0.805616
vt 0.050094 0.805615
vt 0.050094 0.775137
vt 0.946826 0.775137
vt 0.190691 0.592458
vt 0.190691 0.629566
vt 0.153582 0.629566
vt 0.153582 0.592457
vt 0.975716 0.410219
vt 0.975716 0.532238
vt 0.046110 0.532238
vt 0.046110 0.410220
vn -0.9621 0.0000 -0.2726
vn 0.2727 0.0000 -0.9621
vn 0.9621 0.0000 0.2726
vn -0.2727 0.0000 0.9621
vn 0.0000 1.0000 -0.0000
vn 0.9604 0.0000 0.2785
usemtl mat_banner
s off
f 1/1/1 2/2/1 4/3/1 3/4/1
f 3/4/2 4/3/2 8/5/2 7/6/2
f 7/7/3 8/8/3 6/9/3 5/10/3
f 5/10/4 6/9/4 2/2/4 1/1/4
f 8/11/5 4/12/5 2/13/5 6/14/5
f 9/15/1 10/16/1 12/17/1 11/18/1
f 11/18/2 12/17/2 16/19/2 15/20/2
f 15/21/3 16/22/3 14/23/3 13/24/3
f 13/24/4 14/23/4 10/16/4 9/15/4
f 16/25/5 12/26/5 10/27/5 14/28/5
f 17/29/6 18/30/6 20/31/6 19/32/6
